<svg xmlns="http://www.w3.org/2000/svg" viewBox="0 0 2048 2048"><defs><style>.cls-1{fill:#e1e1e1;}.cls-2{fill:#b41825;stroke:#b41825;stroke-miterlimit:10;stroke-width:3px;}</style></defs><g id="Layer_3" data-name="Layer 3"><rect class="cls-1" width="2048" height="2048"/></g><g id="Layer_2" data-name="Layer 2"><path class="cls-2" d="M718.48,1279.15c4.15-45.1,6.83-91.32-1.35-136.15a29.32,29.32,0,0,0-2.84-8.88,225.76,225.76,0,0,0,1.38-95.61c-7.83-39-24.71-75.66-45.95-109.1a523,523,0,0,0-35-48.33c-.56-.7-1.14-1.39-1.73-2.09.42-24.16,2.72-48.22,8.3-72,.2-.86-.79-1.83-1.63-1.24C628,814,614.08,824.59,611.2,839.57c-3.12,16.27,10.09,28.69,19.58,40.14-1.22,80.47,18.43,161.6,6.93,242-14.88,103.93-85.17,186.47-149.3,265-1.58,1.93-3.15,3.87-4.73,5.81,2.12-24.61,7.85-48.75,13.63-72.72s11.31-48,14.68-72.52a607.45,607.45,0,0,0,5.45-73.31c.8-49.65-3.72-99.23-10.47-148.38-3.46-25.21-7.51-50.33-11.79-75.41q-3.17-18.49-6.44-37c-1.29-7.32-2.25-17.17-10.61-19.82-8.63-2.73-18.75,3.82-26.22,7.24l-34.43,15.78-35.4,16.23c-9.82,4.5-20.13,8.62-28.87,15.07-17.56,12.94-20.54,34.78-25,54.69-5.55,24.62-11,49.25-16.12,74-10.15,49.4-18.75,99.22-22.91,149.52a736.69,736.69,0,0,0-2.52,76.19c.25,11.86.56,23.83,1.86,35.62,1,9.33,3,18.85,8.15,26.84,20.44,31.68,66.11,14.9,93.4,4l33.44-13.32c1.78,28.13-9.07,54.77-22.64,78.9a464.35,464.35,0,0,1-46.46,67.44,482.69,482.69,0,0,1-55.18,56.76c-1.73,1.5-3.51,3.06-5.35,4.61a74.88,74.88,0,0,1-19.08-23.26c-12.56-23.27-15.94-51.16-20.89-76.79-5.3-27.44-10-55.07-11.88-83-3.71-55.31,9.28-109.82,6.95-165.16-1.31-31.17-5.33-62.14-8.33-93.18-.43-4.47-1-9-1.35-13.64,5.1-6,10.65-11.58,15.61-17.79a122.32,122.32,0,0,0,20.21-37.42,1.12,1.12,0,0,0-.77-1.36c-21.1-4.9-35.15,16-37.27,34.3a113.74,113.74,0,0,0-.07,21.52,76.18,76.18,0,0,0-11.56,17.49c-5.45,12-7.79,25-9.68,37.93-2.18,14.93-4.11,29.91-5.9,44.9-7.44,62.11-12.43,124.8-13.31,187.37-.74,53.49,3,112.36,32.15,159,5.82,9.31,13.48,18.48,23.8,22.88s21.39,2.2,30.9-3.45a95.94,95.94,0,0,0,10.66-7.42,58.3,58.3,0,0,0,26.47,10.66c6.31,1,13.35,2,17,7.92,3.55,5.77,2.93,13.45,3,19.94q1.32,98.63,2.63,197.25a1.11,1.11,0,0,0,2.21,0l-2.25-168.76c-.17-13.29.83-27.24-.87-40.44-1.16-9-6-14.78-14.88-16.93-4.68-1.13-9.52-1.38-14.18-2.61a52.17,52.17,0,0,1-16-7.47c-.46-.32-.89-.67-1.35-1,6.43-5.27,12.46-11.13,18.37-16.7q15.32-14.38,29.31-30.08A483,483,0,0,0,398.85,1442c15.79-26.73,29.28-56.6,26.73-88.36-.05-.64-.67-1.35-1.4-1.07-19.79,7.89-39.48,17-60,23-16.2,4.72-35.75,8.25-51.58.4-20.23-10-22-33.51-23-53.45a673.4,673.4,0,0,1,0-70.9c2.46-48.34,9.47-96.34,18.47-143.87,4.49-23.75,9.48-47.4,14.67-71q3.71-16.89,7.53-33.75c2.42-10.72,4.32-21.81,8.26-32.1,8.52-22.29,30.48-29.86,50.52-39l65.9-30.2c5.28-2.42,10.63-5.44,16.44-6.32,8-1.22,12.23,4.07,13.86,11.25,2.5,11.06,4,22.44,5.94,33.61,4.09,23.65,8,47.33,11.5,71.09,13.86,94.85,19.48,191.26-2.19,285.41-5.19,22.53-11.19,44.88-15.26,67.65a281.14,281.14,0,0,0-3.7,30.75c-34.16,42.08-67.34,85.32-91.67,134a1.1,1.1,0,0,0,1.73,1.33,177.88,177.88,0,0,1,56.24-37.49c9.07-3.87,18-8.06,24.19-16,5.07-6.52,7.84-14.45,9.28-22.52,3.39-19.07.72-38.7,2-57.95,31.27-38.52,63.51-76.4,91.06-117.57,27.66-41.33,50.89-86.43,61.59-135.3,11.27-51.5,7.51-104.61,3-156.68-3-34.62-6.41-69.63-6-104.46,23.66,29.22,44.87,60.73,60.4,95.05,21.75,48.06,30.92,103.1,19.3,154.27a11.35,11.35,0,0,0-6.43-3.84c-7.11-1.56-14.47,2.17-20.34,5.76a103.58,103.58,0,0,0-34.83,35.52c-8.16,13.73-14.52,30.79-14.36,47,.06,5.39,1.39,12.44,6.57,15.29,6.25,3.46,12.4-1.52,17-5.44,27.11-23.1,44.44-54.43,53.13-88.37a25,25,0,0,1,1.3,4.38c8.73,42.22,5.94,87.07,2.23,129.69-3.75,43.17-9.28,86.17-10.44,129.53-2.33,87.44,8,174.92,1.4,262.29q-1.23,16.2-3.29,32.31c-.18,1.4,2,1.39,2.21,0,11.84-92.84.59-186.28,1.61-279.42C708.94,1370.4,714.28,1324.89,718.48,1279.15Zm-477.4-202.5c4-13.5,16.56-26.07,31.47-23.38a119.44,119.44,0,0,1-22.3,39c-3.7,4.29-7.56,8.36-11.23,12.55C238.34,1095.3,238.4,1085.71,241.08,1076.65Zm21.14,500.29c-13.54-1-23.77-12.08-30.73-22.78-29.34-45-33.27-103.29-32.79-155.46.54-58.78,5.07-117.7,11.6-176.09q2.94-26.29,6.6-52.51c2.08-15,4.11-30.41,10.43-44.31a71,71,0,0,1,9.92-15.42c.47,5.22,1.08,10.41,1.59,15.55,1.43,14.44,3,28.87,4.48,43.32,2.84,28.79,4.89,57.74,3.26,86.68-1.6,28.5-6.16,56.76-7.36,85.3-1.17,28.11,1.47,56.2,5.76,84,4.22,27.3,9.18,54.8,15.67,81.66,5.2,21.54,13.76,43.3,31.49,57.53C283.49,1571.45,273.6,1577.82,262.22,1576.94Zm218.55-150.13c.17,17.89,0,39-13.79,52.45-7.73,7.51-18.37,10.69-27.93,15.14a169.67,169.67,0,0,0-26.65,15.53,174.47,174.47,0,0,0-17.53,14.31c23.57-45.39,54.44-85.76,86.48-125.33C480.83,1408.15,480.68,1417.42,480.77,1426.81ZM615.83,856.29c-4.93-9.95-2.91-20.31,3.42-29.06,5.16-7.15,12.15-12.81,19.28-18-5,22.32-7.18,44.72-7.68,67.18C625.35,870.1,619.51,863.73,615.83,856.29Zm77.64,325.52a157.75,157.75,0,0,1-30.5,38.84c-3.47,3.2-7.26,7.14-11.7,8.86-7.27,2.83-11-3.14-12-9.4-1.3-8.19.85-17.2,3.06-25.07a103.8,103.8,0,0,1,26.73-45.38c9-9,33.56-28.68,42.86-14.86A185.38,185.38,0,0,1,693.47,1181.81Z" transform="translate(0 13.42)"/><path class="cls-2" d="M985.07,670.41c-14.66-3.6-29.44,1.27-41,10.55-8.87,7.11-15.11,16.54-19.6,26.81a235.38,235.38,0,0,1-24.49,4.8A207.7,207.7,0,0,0,922.13,677c.62-1.27-1.29-2.39-1.91-1.11A205.79,205.79,0,0,1,896.81,713c-7,1-13.93,1.71-20.65,2.37-14.15,1.4-39.72,4.66-36.16,25.16A12.66,12.66,0,0,0,853.53,751c9.25-.51,17-7.44,23.43-13.36A199.28,199.28,0,0,0,898,715a257.72,257.72,0,0,0,25.4-4.81,119.7,119.7,0,0,0-4.6,13.82A261.49,261.49,0,0,0,910.51,779c-.84,18.12,1.36,36.39,9.85,52.64,4.58,8.76,10.46,16.73,15.6,25.14a129.56,129.56,0,0,1,12.56,27.33c6,18.35,8.37,37.62,10,56.78.78,9.46,2.18,19.32,1.48,28.81-.83,11.16-7.22,19.26-15.32,26.43-13.94,12.33-29.62,22.68-45.69,32.07-10.2-.76-20.71,1.37-30.91,4.4.42-.55.82-1.11,1.22-1.69.8-1.18-1.11-2.29-1.91-1.12l-.33.45c-2.68-11.73-7.94-23.09-11.75-34.25a398.27,398.27,0,0,1-16-63.14c-6.63-39.71-3.89-83-22-120-8.4-17.16-21.29-32.06-37.33-40.77,8.06-15.73,8.93-34,8.94-51.39,0-22.67-.39-45.35-.6-68q-.63-69.39-1.27-138.78-1.26-138.24-2.53-276.46-.15-17.07-.31-34.14a1.11,1.11,0,0,0-2.21,0q1.14,125.55,2.3,251.12t2.29,251.12c.17,18.07,1.09,36.8-4.12,54.32A58.69,58.69,0,0,1,777.88,771a65.06,65.06,0,0,0-37.51-6.54c-10,1.23-19.69,4.22-29.06,7.85-7.3,2.83-14.44,6.21-20.3,11.51-9.79,8.85-11.61,23.45,1,30.79,15.54,9,34.6-2.2,48.74-9.06,15.13-7.35,30-16.75,38.31-31.82a82.18,82.18,0,0,1,25.82,23c22.74,30.39,24.64,69.36,28.26,105.72C837,941,846,977.77,859.52,1014a141.21,141.21,0,0,1,5.79,18.44c-.35.43-.71.87-1.07,1.28-5.47,1.74-10.82,3.66-16,5.46-9.7,3.4-19.47,7.06-28.87,11.4-7.56,1-15,1.87-21.81,3.69-18.06,4.82-38.66,22-30.53,42.87a1.13,1.13,0,0,0,1.63.66q18.81-9.25,37.61-18.63c12.09-1.35,24.18-2.83,36.07-5,14.79-2.73,25.22-11.71,26.26-26.89q6.21-3.29,12.4-6.59c6.24-3.34,12.45-6.77,18.57-10.34a45,45,0,0,1,15.82,4.48c18.18,9.14,26.9,29.44,31.5,48.18,5.72,23.37,6.32,48,7.49,72q2.39,49.15.77,98.41a1.11,1.11,0,0,0,2.21,0q1.51-47-.57-94c-1.15-25.53-1.66-52-7.77-76.91-4.43-18.07-12.56-37.28-29-47.52a45,45,0,0,0-17.47-6.35c9.39-5.57,18.57-11.49,27.38-17.95,12.6-9.26,28.85-20.27,31.69-36.82,1.47-8.6.17-17.63-.48-26.26-.71-9.54-1.55-19.09-2.84-28.58-2.3-17.06-6.11-34-13.25-49.76-8.17-18-22.33-32.75-28.29-51.79-5.83-18.64-4.8-38.62-2.3-57.74,2.19-16.76,4.79-34.38,11.53-50.11a151.63,151.63,0,0,0,19.79-6.61c15.92-6.63,30-16.67,39.89-30.91A1.11,1.11,0,0,0,985.07,670.41ZM862.29,746c-5.17,2.65-11.51,4.3-16.49.4s-4.51-11-1.89-16c5.21-10.12,18.29-11.42,28.32-12.4,7.56-.73,15.11-1.52,22.64-2.53q-4.54,5.55-9.48,10.78C878.62,733.37,871.13,741.5,862.29,746ZM747.58,799.56c-7.39,4-15.09,7.55-22.81,10.89-9.66,4.18-20.93,7.88-30.93,2.59-9.13-4.83-11.25-15.19-5.2-23.37,5.2-7,13.45-11.32,21.4-14.51,17.74-7.14,37.49-12.22,56.4-6.74A62.22,62.22,0,0,1,777,772.6C770.27,784.21,759.88,792.84,747.58,799.56Zm119.14,246.19c-10.85,5.61-21.79,11.08-32.67,16.62q-14.09,7.16-28.15,14.33l-25,3.13c11-11.88,24.73-20.38,39.31-27.15,16.46-2.13,34.29-5,45.7-17.52A49.52,49.52,0,0,1,866.72,1045.75Zm-26.22-1.42c6.54-2.41,13.57-5.19,20.81-7.67-9.17,8.22-21.45,11.06-34.07,12.89C831.62,1047.7,836.06,1046,840.5,1044.33Zm-71.71,51c-3.59-11,2-22.48,10.57-29.73,9.43-8,22-10.4,33.94-12-13.48,6.83-26,15.33-36.06,26.94-.55.63-.25,2,.78,1.88,7.13-.89,14.3-1.66,21.49-2.45Q784.18,1087.71,768.79,1095.32ZM863,1059.57c-4.88,8.25-14,11.3-22.92,12.77s-18,2.42-27,3.48q26.88-13.48,53.5-27.43A27.75,27.75,0,0,1,863,1059.57Zm31.75-29c-8.55,4.89-17.23,9.54-26,14.08a58.47,58.47,0,0,0-.86-10.16c9.19-2.77,18.61-4.71,27.77-4.46Zm32.47-323.57a83,83,0,0,1,4.61-8.69c10.55-17.18,30.45-30.34,51.09-26.17C969.26,690.88,949.05,701.06,927.18,707.05Z" transform="translate(0 13.42)"/><path class="cls-2" d="M1080.36,1250.92c-.56-9.64-1.52-19.25-3-28.79-1.34-8.85-2.59-18.27-6.08-26.58a27.84,27.84,0,0,0-1.32-2.69,42.4,42.4,0,0,0,4.3-.62,1.15,1.15,0,0,0,.82-1.07c4.39-46,2.54-104.76-25.87-144.33-4.93-59.22-29.68-115.18-46.14-171.77-5.39-18.51-10.46-37.47-12.81-56.65-2.18-17.81-.85-36.11,9.22-51.47,17.19-26.2,50.57-36.85,79.06-45.31a1.11,1.11,0,0,0,.77-1.36c-4.93-11.79-18.1-14.42-28.47-19.67-14.17-7.19-22.53-21.05-26.56-36-9.57-35.56,5.59-71.91-.72-107.8-.24-1.4-2.37-.81-2.13.58,6.57,37.39-10.14,75.56,2.09,112.39,4.3,12.94,12.12,24.91,24.23,31.7,6.31,3.55,13.37,5.55,19.66,9.15,2.6,1.49,8.08,4.68,8.68,8,.38,2-.86,1.74-2.73,2.31q-3.09.95-6.17,1.92c-27,8.63-57.49,20.83-72,47-8.44,15.21-9.19,32.76-7,49.67,2.4,18.71,7.25,37.17,12.48,55.26,15.87,54.88,40.93,111.43,46.38,169.24a98.66,98.66,0,0,0-27.93-24.85,78.11,78.11,0,0,0-36.56-11.27c-5.49-.22-11.61.1-15.72,4.25s-4.86,10.42-5.4,15.93c-2.7,27.48,4,55.69,17.73,79.54a131.41,131.41,0,0,0,26.48,32.67c3.91,3.48,5.41,5.38,10.71,4.29a29.12,29.12,0,0,0,13.73-7.29c19.21-17.61,20.41-50.08,20-74.15-.07-3.78-.24-7.53-.48-11.28a120.09,120.09,0,0,1,9,16.27c8.39,18.42,12.55,38.59,14.56,58.64a301.85,301.85,0,0,1,1.48,32.24q0,7.24-.4,14.48c-.13,2.59-.28,5.19-.47,7.78-.16,2.23.26,6.7-1.21,8.52a5.31,5.31,0,0,1-3.59,1.45c-5.83-8.81-17-14.9-26.42-7.12a1.12,1.12,0,0,0,.23,1.74,40.59,40.59,0,0,0,24.89,7.25l.15.26c4,7.19,5.22,16,6.59,24a329.52,329.52,0,0,1,4.4,52.38c.35,34.1-3.31,68.07-6.48,102-6.54,69.93-8.66,140.11-8.84,210.31-.1,40.08.36,80.16.83,120.23a1.11,1.11,0,0,0,2.21,0c-.88-75.59-1.76-151.22,1.19-226.78,1.48-38,4.17-75.87,7.76-113.72C1078.94,1324.88,1082.53,1287.89,1080.36,1250.92Zm-35.2-150.16c-2.52,14.19-8.62,31.32-21.94,38.8-3.27,1.83-8.35,4.13-12,2.48-3.47-1.57-7-6.11-9.7-8.81a129.41,129.41,0,0,1-16.77-20.85,135.74,135.74,0,0,1-19.35-48.14,128.82,128.82,0,0,1-2.3-25.77c.11-9-.45-23.16,9.3-27.28,8.26-3.5,20.38-.48,28.54,2.1a83.56,83.56,0,0,1,23.66,12,99.06,99.06,0,0,1,22.86,23.33A208.2,208.2,0,0,1,1045.16,1100.76ZM1057.4,1190a38.83,38.83,0,0,1-12.17-5.22c7.5-5,16.48-.24,21.27,6.49A50,50,0,0,1,1057.4,1190Z" transform="translate(0 13.42)"/><path class="cls-2" d="M1904.57,1097.1c-7.59-38.5-37.62-67.78-64.28-94.39l-52.93-52.81c-16-16-31.62-32.52-48.84-47.19-15-12.82-31.5-23.37-50-30.28l.61-1.22c.52-1.05-.9-2.37-1.74-1.34l-1.34,1.66c-20.5-7.22-42-10.88-62.78-17.23-61.06-18.66-114.22-57.16-173.39-80.16a170.55,170.55,0,0,1-6.34-27.79c-3.18-22.34-2.84-45-2.07-67.52.82-23.82,1.81-47.64,2.73-71.46l6.31-164.69c0-1.42-2.16-1.42-2.21,0q-3,76.86-5.89,153.71-1.47,38.22-2.93,76.45c-.87,23.28-1.51,46.7,1.37,69.88a179,179,0,0,0,6.41,30.4,280.79,280.79,0,0,0-44.39-13c-34.49-6.93-69.63-3.26-104.47-5q-.52-5.49-.93-11a489.11,489.11,0,0,1,2.09-91.82c.16-1.41-2-1.4-2.21,0a489,489,0,0,0-1.17,102.7,226.66,226.66,0,0,1-30.07-3.57c-36.81-7.11-72.34-20.82-109.47-26.26.73-1,1.43-1.92,2.08-2.9,17.44-26.42,13.87-62.45,13.31-92.42L1166.92,357q-1.44-76.9-2.87-153.8a1.11,1.11,0,0,0-2.21,0q3.77,201.87,7.52,403.73c.51,27.74,3.35,56.68-1.61,84.17-1.92,10.6-6.25,23.75-13.58,33.64-4.38-.6-8.79-1.08-13.23-1.41a168.21,168.21,0,0,0-32.28.61,1.15,1.15,0,0,0-1.11,1.1c-.77,11.58,11.59,16.78,21.5,16.47,10.21-.32,19.39-6.64,25.94-14.41q6.79,1,13.54,2.28c29.25,5.7,57.51,15.4,86.56,21.92a272,272,0,0,0,41.32,6.28c.11,1.1.21,2.2.33,3.3q2.58,24,7.54,47.7c-15.81.81-40.1-1-48.71,15.49a1.15,1.15,0,0,0,.18,1.34c8.53,9.17,21.89,9,33.48,9.62,6.88.39,14.52.74,20.55,4.47,8.77,5.43,8.52,15.83,8.79,25a219.58,219.58,0,0,0,33.64,109.94,1.12,1.12,0,0,0,2-.26c2.48-8,13.41-6.58,18.57-2.31a26.92,26.92,0,0,1,4.64,5.08c-14,2-27.27,8.39-38.76,17.07a132.54,132.54,0,0,0-10.73,9.07,33.61,33.61,0,0,0-7.71,7.67c-1.45,1.39-3.84,3.26-4.39,5a5.9,5.9,0,0,0,0,2.8,33,33,0,0,0-2.16,16.79c.14.93.32,1.84.54,2.74a21.15,21.15,0,0,0-2.36,2c-4.19,4.1-5.8,9.82-6.52,15.48-1,8-1.11,16.11-2.16,24.12a230.45,230.45,0,0,1-12.5,50.28c-.52,1.38-1.06,2.75-1.61,4.11q-5.28,4.7-10.3,9.66a213.65,213.65,0,0,1-3.16-61.11c.1-1-1.23-1.37-1.88-.78a31.69,31.69,0,0,0-9.84,30.21c-15.19-5.65-10.51-27.19-9.42-39.45,1-11-1.15-22.86-12.44-27.7-10.94-4.69-17.41,4.22-19,14.07-2.1,13.35-.51,27.21,3.58,40,7.61,23.85,21.78,42.64,39,58.77a188.53,188.53,0,0,0-24.12,35.22c-12.36,23.62-19.41,50.39-18.42,76.9q-21.56-14.15-42.39-29.34a1043.18,1043.18,0,0,1-93-76.53,1.11,1.11,0,0,0-1.84.49c-4.83,22,5.77,43.94,21.89,58.63,18.73,17.07,44,24.62,67.67,31.78,1.37.42,2-1.72.59-2.13-22.38-6.76-45.81-13.77-64.11-29-16.49-13.68-28.16-35.15-24.27-56.88a1047.33,1047.33,0,0,0,135.61,105.65,121.82,121.82,0,0,0,6.62,33.45,1.12,1.12,0,0,0,1.84.49l17-17.81q7.68,4.71,15.42,9.3,24.1,14.22,49,27.13c7.49,3.88,15,8.18,22.82,11.32,5.74,2.32,12.49,3.24,17.37-1.4,4-3.82,5.22-9.76,5.76-15,1-9.82.86-19.85,1.22-29.72q1.15-31.35,2.3-62.7c19.85,15.38,37.78,33.45,49.43,55.94,6.74,13,11,27.36,11.43,42.08.42,15.84-4.72,37.9-24,39.39-15.69,1.21-19.34-16.59-29.87-24.16-8.26-5.93-19.16-5.43-22.53,5.34-2.1,6.71-1.92,14.39-2.55,21.33l-2.51,27.51-4.92,53.92q-10.95,119.94-21.89,239.89c-.13,1.41,2.08,1.4,2.21,0l19.08-209.08q4.72-51.72,9.44-103.44c.71-7.85,1.24-15.75,2.16-23.58.54-4.57,1.45-10,5.84-12.56,5.14-3,11.52,0,15.63,3.41,8.54,7,11.79,19.9,23.47,23,10.72,2.9,21.65-3.89,26.92-13,6.29-10.8,6.61-24.53,5.12-36.62-3.24-26.1-17.69-49.43-35.4-68.29a218.54,218.54,0,0,0-26.92-23.91q2.46-67.15,4.94-134.33c12.06,23.08,25.49,47.06,47.44,62a77.08,77.08,0,0,0,23,10.58c15,19.49,16.8,44.81,26.77,67.16,5.29,11.85,14.33,23.18,25.73,28.62a46,46,0,0,0-5.8,7.53c-11.49,18.75-5,42.32,2.53,61.25,10.21,25.57,26.38,53.21,16.15,81.38-.49,1.34,1.65,1.92,2.13.59,15.39-42.37-25.2-78.51-24.78-119.91a45.32,45.32,0,0,1,11.82-29.93,32.71,32.71,0,0,0,23.79.45,25,25,0,0,0,11.81-8.53c10.18,6.29,14.5,21,14.87,33.35.33,11.1-1.15,22.23-2.16,33.27-.32,3.62-.65,7.25-1,10.87a89.23,89.23,0,0,0-2.64,29.08,1.11,1.11,0,0,0,2.21,0q1.29-14.3,2.59-28.59a92.67,92.67,0,0,1,14.74-31.18c1.65,2.24,3.25,4.27,4.46,6,15.21,21.35,35.47,43.65,63.67,44a1.12,1.12,0,0,0,1.11-1.1c1.36-39.08,2.71-78.18,2-117.28-.69-35.8-2.22-72.44-9.77-107.56-3.36-15.58-8.23-31-15.69-45.09-7.74-14.66-18.43-27-30.58-38.18-13.89-12.75-28.19-25.09-42.6-37.31a32.56,32.56,0,0,0,3.67.71c12.37,1.63,30.42-4,29.28-19.27a1.09,1.09,0,0,0-.55-1c-3.43-1.52-6.84-3.07-10.26-4.62q1.47-2.22,2.73-4.53c10,12.39,28.74,16,43.43,18.81,24.17,4.65,59.91,7.07,74.68-16.41-.39,13.73,8.75,26.16,19.9,34,17.29,12.12,39.23,15,56.76,26.91,33.29,22.54,50.08,62.08,84,84.07,15.21,9.86,33.59,16.07,51.75,12,7.26-1.64,15-5.23,18.85-11.91C1907.72,1113.76,1906.06,1104.69,1904.57,1097.1ZM1126.93,739.31c-5.52-.25-12-2.17-15.3-6.91a8.06,8.06,0,0,1-1.76-3.86c-.19-3.22-.28-1.89,1.93-2.72,3.19-1.21,8.06-.64,11.48-.73a185.28,185.28,0,0,1,29.31,1.7C1146.2,734.54,1137.76,739.81,1126.93,739.31Zm456.28,102.27c26,11.4,52.61,18.3,80,25.44,7.18,1.87,14.33,3.92,21.34,6.35-12.25,15-27.27,31-48.09,30.09S1609,883,1599.76,867.69c-3.5-5.79-7.74-11.39-13.61-15-7.58-4.6-16.53-5-25.16-4.39-9.71.75-19.31,2.64-29.09,1.9a75.51,75.51,0,0,1-28-8c-26.74-13.41-43.79-37.91-53.16-65.3C1496.45,795.07,1538.26,821.86,1583.21,841.58ZM1346,991.55c9.93-6.48,21.07-11.17,32.76-12.59,2.37,3.62,4.41,7.51,7.09,10.85,4.95,6.17,14.63,11.06,21.7,6.49-3.8,18.63-25,28.86-41.95,18.69-4.32-2.59-6.85-5.84-9.78-9.82-1.85-2.51-3.69-4.75-6.61-6-4.21-1.85-9-1.49-13.4,0A113.56,113.56,0,0,1,1346,991.55Zm-27.34,26.17a31.77,31.77,0,0,1,4.68-7.47c1.68-1.61,3.52-3.1,4.95-4.47l1.06-1a30.32,30.32,0,0,1,3.06-1.85c5.6-2.93,13.23-4.5,18.48-.07,3.72,3.13,5.71,7.87,9.48,11.08a31.4,31.4,0,0,0,20.68,7.4c15.37-.26,27.56-12.87,29.15-27.79a1.12,1.12,0,0,0-1.89-.78c-7.91,8.51-18.86-1.19-23.4-8.1-1.27-1.93-2.47-4-3.73-6a59.44,59.44,0,0,1,8.55-.09c15.75,1,31,8.16,39.65,21.69a1.09,1.09,0,0,0,.95.55c7.77-.74,9.89-8.32,8.59-15.13-2.07-10.84-11.33-14.77-20-20-6.5-3.9-11.57-8.67-12.8-16a37.09,37.09,0,0,0,16.7,8c9.44,1.9,21.91,1.5,27.12-7.86a21.55,21.55,0,0,0,2-5.22c5.43-.56,9.69,2.78,14.67,7l29.17,25,19.29,16.53c-15.9-8.65-32.46-19.45-49.66-7.3-11.65,8.24-17.65,23-18.27,37.31a189.37,189.37,0,0,0-18.28,5.34c-20.59,7.27-42.07,19-64.16,19.35a46.16,46.16,0,0,0-20.93-13.39,40.78,40.78,0,0,0-17.39-1.29,31.37,31.37,0,0,1-7.63-13.08A6.32,6.32,0,0,1,1318.7,1017.72Zm96.69-64.64a29.36,29.36,0,0,0,20.24-.31c3.74-1.49,6.83-4,10.32-5.95a18,18,0,0,1,3.68-1.58,14.24,14.24,0,0,1-10.58,10.23A37.21,37.21,0,0,1,1415.39,953.08Zm107.35,46.7,1.17,1c-1.87,1.11-3.77,2.15-5.68,3.08-21.51,10.51-45.52,13.45-68.7,18.93q.08-1.47.24-2.94c1.76-15.53,10.9-33.15,27.46-36.6C1494.76,979.6,1507.72,993.28,1522.74,999.78Zm-154.51,64.74a11.9,11.9,0,0,0-4-2.23c-6.34-2-13.19-.19-19.68-.7a32.28,32.28,0,0,1-23-13.09,28.69,28.69,0,0,1-4.58-9.4,27,27,0,0,1,8.83-3.31l.41.41c10.16,9.77,23.83,13.88,37.57,14,.09.1.18.19.26.29a40,40,0,0,1,6.4,10.41C1369.65,1062.05,1368.91,1063.27,1368.23,1064.52Zm.51,11.18a18.14,18.14,0,0,1-4.61,6.16,76.26,76.26,0,0,1,4.67-12.87A8,8,0,0,1,1368.74,1075.7Zm-40.15-40.34c.7-.07,1.4-.14,2.1-.18,11.6-.61,23,4.61,31.08,12.81a56.31,56.31,0,0,1-16-2.84A48.73,48.73,0,0,1,1328.59,1035.36Zm41.42,19.71a44.26,44.26,0,0,0-3.4-5,75.4,75.4,0,0,0,12.93-1.58c1.25-.26,2.5-.57,3.74-.88a48.11,48.11,0,0,0-11.37,11.06C1371.34,1057.48,1370.7,1056.25,1370,1055.07Zm-53-32.82c.48,1.18,1,2.25,1.33,3a34.49,34.49,0,0,0,5.56,8.56,28,28,0,0,0-7.54,2.91A31.6,31.6,0,0,1,1317.05,1022.25Zm-10.39,45.67c.55-7,.2-14.71,3.27-21.21a17.4,17.4,0,0,1,5-6.2,34.8,34.8,0,0,0,24.78,22.56c7.11,1.65,14.3-.29,21.42.84a11.26,11.26,0,0,1,6,2.79,74.58,74.58,0,0,0-5.82,17.45c-1.11.81-2.25,1.56-3.35,2.24-15.58,9.62-31.36,18.58-46.16,29.44-6.56,4.82-13,9.9-19.18,15.23A231.26,231.26,0,0,0,1306.66,1067.92Zm-19.48,70.91q-3,7-6.41,13.89c-.51-2.12-1-4.24-1.43-6.37Q1283.18,1142.51,1287.18,1138.83Zm-7.83,17.37a1.11,1.11,0,0,0,2,.26q5.28-10.28,9.54-21c7.75-6.86,15.87-13.31,24.21-19.34,14.57-10.52,30.39-18.8,45.31-28.7l.25-.16c-3.49,19.07-2.42,40.26-5.07,57.73-3.23,21.34-13.87,39.61-27.22,56.25-20.77-13.5-41.71-26.75-59.71-43.49q4.24-4.87,8.79-9.51C1278.05,1150.9,1278.67,1153.56,1279.35,1156.2Zm-28.75-17.93c-10.09-12.83-18.36-27.38-22.79-43.15a88.92,88.92,0,0,1-3.4-23.61c0-8.09-.05-24.71,11-25.65,8.32-.71,15.2,7.5,16.65,14.92,1.84,9.42-1.24,18.91-1.55,28.32-.33,10.36,3.52,22.78,14.66,25.71a1.12,1.12,0,0,0,1.36-1.36,29.49,29.49,0,0,1,6.69-27.87,214.87,214.87,0,0,0,3.71,60.05q-5.09,5.14-9.85,10.6A169.62,169.62,0,0,1,1250.6,1138.27Zm-19.13,165.43a120.35,120.35,0,0,1-5.83-29.55q10.52,6.84,21.2,13.42Zm16.92-17.76q-11.55-7.11-22.92-14.53c-1.27-25.4,5-51.11,16.4-74a186.31,186.31,0,0,1,25.5-38.08c18,16.41,39.09,30.09,59.67,43.6-13.07,16-28.53,30.47-42.16,44.77Zm110.72-23.16c-.7,19-.27,38.39-2.23,57.28-1.05,10-6.23,18.74-17.75,15.28-8.6-2.58-16.93-7.94-24.87-12.06q-23.54-12.22-46.42-25.64-8.82-5.16-17.52-10.52l29.39-30.82c14.8-15.53,30-30.75,44.21-46.86,1.59-1.81,3.17-3.64,4.72-5.49,7.65,5,15.21,10,22.48,15.18q4.73,3.33,9.35,6.85Q1359.78,1244.37,1359.11,1262.78Zm8.55-177a1.11,1.11,0,0,0-2.06.56q-2.17,59-4.34,118-.35,9.47-.7,18.92c-9.86-7.38-20.17-14.22-30.55-21,9.59-11.68,18.09-24.36,23.24-38.64,7.28-20.17,5.72-41.7,7.59-62.71a118,118,0,0,1,2.39-15.5c4-3,7.83-7,8.53-12a9.57,9.57,0,0,0-1.7-7c.47-.89,1-1.76,1.47-2.62a32.23,32.23,0,0,1,1.08,4.22c1.45,7.79-.69,15.59-.07,23.41a36.51,36.51,0,0,0,.72,4.94C1371.35,1092.88,1369.49,1089.32,1367.66,1085.81Zm58.86,70.78c-16.43-7.8-28.66-20.88-38.74-35.7,13.32,13.39,30.79,22.31,44.31,35.51,1.26,1.23,2.45,2.5,3.57,3.79A76.49,76.49,0,0,1,1426.52,1156.59Zm94.25,99.18c-7.87,4.89-17.75,5.26-26.48,2.37a34,34,0,0,1,18.54-9.19,22.73,22.73,0,0,1,13.51,1.79A20.71,20.71,0,0,1,1520.77,1255.77Zm6.83-6.86a26.1,26.1,0,0,0-4.6-1.68c-11.24-2.93-22.62,2.2-30.87,10.11a35.18,35.18,0,0,1-9-5.24c-24.85-20.2-22.43-56.82-37.84-82.71a62.55,62.55,0,0,0-3.61-5.35,75.91,75.91,0,0,0,15.71,1.81c10.88.11,26-1.43,33.15-10.88a21.32,21.32,0,0,0,3,.29c8.27.15,17.91-2.76,25.18,2.52,7,5.11,7.37,15.42,8.24,23.28q1.51,13.77,2.77,27.58C1530.85,1220.86,1534.4,1237.77,1527.6,1248.91ZM1485,1150.85c-3.56-1.93-8.66-6.29-7.07-11,2.15-6.44,9.69-1.61,11.88,1.93a9.32,9.32,0,0,1-.28,10.75A17.06,17.06,0,0,1,1485,1150.85Zm58,168.63.09-1.1c1-11,2.5-22.17,2.16-33.27-.4-13.09-4.17-28.36-15.81-35.2a27.64,27.64,0,0,0,3.81-10.77c1-7.27,0-14.74-.59-22q-1.08-12.74-2.39-25.47c-1.12-10.83-.28-28.1-10-35.56-8.32-6.38-18.91-2.12-28.4-3.2,3.51-7,.31-16.91-8.34-18.24-9.91-1.52-9,10.2-3.91,15a20.11,20.11,0,0,0,8.38,4.75,25.9,25.9,0,0,1-9.86,6.25c-12,4.27-25.91,4-38.55.66-12.75-15.56-31.51-25.31-46.49-38.56-8.39-7.42-15.85-16.42-17.9-27.74-1.47-8.11.82-16.21,0-24.33a37.69,37.69,0,0,0-2.16-9.2,45.53,45.53,0,0,1,15.17-14.36,1,1,0,0,0,.51-1c9.51-2.85,18.71-6.73,27.91-10.42a259.66,259.66,0,0,1,30.58-10.17,53.45,53.45,0,0,0,.75,9.27c4.08,23.73,24.27,41.78,41.39,56.89,9.8,8.64,19.1,18.09,29.32,26.22,6.27,5,13.36,9.15,21.13,10.64,3.2,49.31,10.08,106.12,51.18,139-2.34,1.07-4.62,2.26-6.84,3.52-10.83-.3-22.8-6.41-31.87,1.68-7.36,6.57-2.28,16.15,3.19,23.89A95.25,95.25,0,0,0,1543,1319.48Zm-1.57-202.38c0-8.56,2.45-24,14.43-22.36,10.15,1.37,14.77,15.48,9.43,23.39-5.07,7.52-15,9.67-23.66,8.56C1541.53,1123.48,1541.45,1120.28,1541.46,1117.1Zm11,169.91c-4.26-9,1.64-15.08,10.34-16,6.26-.67,12.24,1.21,18.24,2a92.12,92.12,0,0,0-24,21.69A55.81,55.81,0,0,1,1552.45,1287Zm1-260.93c17.4,14.92,34.65,29.87,45.92,50.19,10.51,19,16.06,40.25,19.48,61.53,3.91,24.37,5.52,49.16,6.45,73.79,1,25.55.89,51.14.36,76.7-.26,12.43-.63,24.85-1,37.27-.19,6,.44,12.72-.63,18.63-.6,3.35-3.53,2.09-6.58,1.61a50.08,50.08,0,0,1-6.75-1.57c-21.54-6.53-37-25.79-49.36-43.54-1-1.37-2-2.75-2.94-4.15a90,90,0,0,1,26.48-23.3,21.11,21.11,0,0,0,8.73-1.59c1.31-.55.19-2.45-1.11-1.91a16.38,16.38,0,0,1-2.68.86c1.27-.62,2.55-1.22,3.85-1.79.86-.36.57-1.47,0-1.9-29.73-22.88-41.71-59.62-47.22-95.37a406.82,406.82,0,0,1-4.64-42.62,31.66,31.66,0,0,0,6.4.21c8.26-.6,17.25-4.6,20.63-12.7,3-7.3-.17-16.55-6.34-21.22s-14.13-3.07-18.62,3.07c-5.73,7.83-4.75,18.94-4.15,28.09l-.58-.1c-10.56-2.24-19.24-9.81-26.95-16.92-14.32-13.21-29.93-25.47-42.9-40.06-11.12-12.51-19.88-27.44-19.78-44.28q2.83-.72,5.7-1.37c23.69-5.36,49.36-8.73,70.5-21.37Zm-26.51-27.14c-.66-.24-1.31-.49-1.94-.75l-.38-.18c-13.22-11.17-26.51-22.27-39.62-33.51-7.45-6.39-14.69-13.56-22.7-19.26a14.19,14.19,0,0,0-9.76-2.93,21.93,21.93,0,0,0-2.8-13.82q39.15,22.31,79.84,41.71,9.32,4.44,18.71,8.7A80.49,80.49,0,0,1,1526.92,998.94Zm33.3-14.1c1.15,2.69-2,7.42-3.61,9.14-6.58,7-17.77,8.11-26.94,5.77,1.27-.86,2.53-1.75,3.76-2.69a80.3,80.3,0,0,0,16.82-17.26h0C1552.19,980.68,1559.32,982.74,1560.22,984.84Zm-6-16c-5.85-9.81-6.79-23.06,3.53-29.82A45.82,45.82,0,0,1,1554.21,968.8Zm345.64,153.43c-9.78,11.33-29.11,11-42.28,7.47-14.4-3.91-27.3-12.46-38.34-22.3-20.31-18.1-34.46-41.9-54.22-60.56a109.21,109.21,0,0,0-32.38-21.44c-13.12-5.59-27.44-9.27-39.25-17.54-12-8.42-21.79-22.67-18-37.86a1.11,1.11,0,0,0-2.13-.59c-11,26.76-46.62,25.43-70.38,21.48-13.85-2.3-29.68-5.08-41.16-13.62a28.05,28.05,0,0,1-6.12-6.39c5.1-10.38,7.1-22,4-33.93a1.13,1.13,0,0,0-1.63-.66c-12.13,6.72-12.54,23.41-5.75,34.2.23.36.46.7.7,1a63.33,63.33,0,0,1-3.3,5.52q-53.08-24.18-103.7-53.3a1.11,1.11,0,0,0-1.34,1.74,20,20,0,0,1,5.68,17.22,22.58,22.58,0,0,0-6.12,2.66c-7.92,4.75-14.73,8.45-24.3,6.59a28.82,28.82,0,0,1-13.84-6.81c.23-6.92,2.78-13.54,3.24-20.44.57-8.68-2.22-19.07-11.58-21.54a1.12,1.12,0,0,0-1.25.5,39.1,39.1,0,0,0,7.61,44,21.35,21.35,0,0,0,7.74,15.72c7.4,6.22,19.4,8.86,23.66,18.2,1.81,4,3,10.19.28,14.08-4.27,6.11-8.45-2.53-11.79-5.61a52.83,52.83,0,0,0-25.41-12.54,61.5,61.5,0,0,0-18.55-.88,30,30,0,0,0-6-6.78c-6-4.76-16.92-5.46-20.91,1.65a218,218,0,0,1-26.85-65.28,213.18,213.18,0,0,1-5.23-37.88c-.41-8.71.79-18.78-4.86-26.14-8.91-11.61-27.2-8.81-39.94-10.31a38.2,38.2,0,0,1-12.48-3.27c-1.45-.71-4.43-2.09-5.08-3.5-1-2.22,2.17-4.79,3.91-6.2,8.37-6.74,20.39-6.92,30.6-7.51l11.66-.67c.11.51.21,1,.32,1.52,2.35,10.76,5.35,24.54,16,30.15,6.08,3.19,12.91,2,19.36.87q13.53-2.34,27-4.71c9.37-1.63,18.76-3.21,28.12-4.89,6.25-1.12,13-2.53,17-8,6.56-8.9,2.38-21.64-2.86-30.08-6.07-9.78-16.44-19.33-28.8-18.22-10.07.91-22.21,10.3-18,21.62a15,15,0,0,0,4,5.88l-60.72,3.51c-1.6-7.55-2.78-15.23-4-22.73q-2.23-13.95-3.64-28c16,.91,32,.28,48.06.14,29.91-.27,58.56,3.27,87,12.81q7.29,2.46,14.43,5.23c8.43,25.78,23.42,49,47.15,64a79.64,79.64,0,0,0,51,12.24c10.8-1.06,22.34-3.62,33-.16,9.22,3,15.06,10.58,19.71,18.65,8.88,15.43,16.21,33.7,36.64,35,20.07,1.26,35-12.49,47.3-26.85l-18.46,37.08c-.33.66,0,1.78,1,1.66a22.72,22.72,0,0,0,4.78-1.15,34.09,34.09,0,0,0,10.83,20c7.89,6.93,17.81,11.08,27.19,15.54L1741,967.51c20.51,9.76,44.36,18.23,60.62,34.7,9,9.15,15.62,21.84,14.93,35-.25,4.76-.85,5.94-5.4,5.92a54.47,54.47,0,0,1-10.57-1.08,57.44,57.44,0,0,1-18.28-7.26,1.11,1.11,0,0,0-1.62,1.25,124.78,124.78,0,0,0,31,59.38c15,16,38.12,33.4,61.36,31.09,17.55-1.74,34.33-20.27,24.15-37.75-11-19-42.52-19.31-47.23-43.21a5.53,5.53,0,0,1-.07-.88c6-1.22,13.75-5,7.34-10.9s-9.57,3.41-9.71,9.09c-6.8.41-13.66-2.51-18.71-7-12-10.59-12.31-28.6-11.09-43.34.12-1.41-2.09-1.41-2.21,0-1.07,12.91-.89,27,6.21,38.32,5.14,8.23,14.58,14.15,24.42,14.21.45,0,1,0,1.5-.08,3.65,25.9,38,25.53,48.31,46.09,7.19,14.39-5.39,29.61-19.44,32.65-15.8,3.42-31.89-4.8-44.48-13.59a122.4,122.4,0,0,1-48.61-72.22,58.91,58.91,0,0,0,33.25,7.15,1.14,1.14,0,0,0,1.06-.81c8.07-34.82-27.19-55.61-53.44-68.12q-27-12.89-54-25.72c-15.09-7.18-36.72-15.38-38-34.92,6-2.76,10.7-7.68,16-12a44.5,44.5,0,0,1,7.45-5.17c6.73,2.67,12.38,8.44,15.71,14.58a1.11,1.11,0,0,0,1.51.4c7.58-5.49,2.19-17.14-5.76-19.09a17,17,0,0,0-12.08,1.57c-5.92-2.13-12.27-2-17.84,2.24a19.62,19.62,0,0,0-2.66,2.45q6.46-13,12.94-26a144.84,144.84,0,0,1,19.51,8.73c13.18,7.21,25,16.54,36.18,26.57,23.7,21.35,45.67,44.76,68.24,67.29,21.2,21.15,43.7,41.65,62.53,65,8.72,10.83,16.59,22.53,22.12,35.33a100.42,100.42,0,0,1,6.38,20.31C1904,1105.72,1905.69,1115.46,1899.85,1122.23ZM1404.7,937.42a51,51,0,0,0-.73,5.76,27.52,27.52,0,0,1-3.85-5.46,1,1,0,0,0-1.35-.43c-4.62-9.06-6.08-20.64-1.81-29.49,3.16-6.57,9.09,6.54,9.67,9.8C1407.82,924.36,1405.9,930.82,1404.7,937.42Zm-19.45-131.57a1.12,1.12,0,0,0-.78-1.89l-14,.81a16.83,16.83,0,0,1-1.39-1c-5.31-4.37-6-11.19-1.86-16.69,8.19-10.9,23.24-8.39,32.35-.33,8.27,7.32,15.94,20.08,13.89,31.55-2.54,14.15-22.44,14-33.55,15.94-13.7,2.38-27.38,4.88-41.1,7.14-7.24,1.2-14.52,1.86-20.33-3.46-4.23-3.86-6.66-9.43-8.38-14.77-1.31-4.07-2.39-8.25-3.33-12.48l63-3.65C1374.68,809.87,1380.9,810.15,1385.25,805.85Zm-10.17.87,5.27-.31A9.73,9.73,0,0,1,1375.08,806.72ZM1667.33,914.9c1-2,2-4,3-6a21.38,21.38,0,0,0-.37,5.13A18.49,18.49,0,0,1,1667.33,914.9Zm182.6,127.67c.27-4.25,1.58-10.91,5-7.79.13.93.27,1.86.4,2.8q1.74,2.84-.87,3.48A10.88,10.88,0,0,1,1849.93,1042.57ZM1672.26,913c.49-9,6.69-16.63,16.42-16.21a20.73,20.73,0,0,1,3.7.51C1685.47,901.69,1679.38,909.12,1672.26,913Zm40.37-2.35a37.13,37.13,0,0,0-14.44-13.5c3.23-1.25,6.62-1.66,9.86-.26C1712.82,898.93,1716.78,906.4,1712.63,910.61Z" transform="translate(0 13.42)"/></g></svg>